<svg width="28" height="22" viewBox="0 0 28 22" fill="none" xmlns="http://www.w3.org/2000/svg">
<path d="M23.7393 1.85652C26.9016 6.64693 28.4632 12.0504 27.8794 18.271C27.877 18.2973 27.8637 18.3215 27.8427 18.3373C25.448 20.1491 23.1279 21.2486 20.8403 21.9777C20.8224 21.9833 20.8034 21.983 20.7858 21.9769C20.7681 21.9707 20.7528 21.959 20.7419 21.9435C20.2134 21.1858 19.7332 20.3871 19.3125 19.5483C19.2884 19.4989 19.3104 19.4394 19.3601 19.4199C20.1228 19.1238 20.848 18.769 21.5455 18.3489C21.6005 18.3157 21.604 18.2346 21.5532 18.1956C21.4052 18.0824 21.2585 17.9634 21.1182 17.8444C21.0919 17.8224 21.0566 17.818 21.0268 17.8328C16.4982 19.9875 11.5373 19.9875 6.95508 17.8328C6.92533 17.8191 6.88998 17.8238 6.86443 17.8455C6.72443 17.9645 6.57744 18.0824 6.43079 18.1956C6.38004 18.2346 6.38424 18.3157 6.43954 18.3489C7.13708 18.7611 7.86228 19.1238 8.62388 19.4213C8.67323 19.4408 8.69668 19.4989 8.67218 19.5483C8.26058 20.3881 7.78038 21.1869 7.24208 21.9446C7.21863 21.9752 7.18013 21.9893 7.14373 21.9777C4.86699 21.2486 2.54684 20.1491 0.152146 18.3373C0.132196 18.3215 0.117846 18.2962 0.115746 18.2699C-0.372153 12.8892 0.622195 7.441 4.25204 1.85544C4.26079 1.84065 4.27409 1.82912 4.28949 1.82226C6.07554 0.977704 7.98898 0.356365 9.98888 0.00152018C10.0253 -0.00424966 10.0617 0.0130598 10.0806 0.0462364C10.3277 0.497005 10.6101 1.07507 10.8012 1.54748C12.9093 1.21571 15.0502 1.21571 17.2024 1.54748C17.3935 1.08517 17.6661 0.497005 17.9122 0.0462364C17.9209 0.0297779 17.9345 0.0165922 17.951 0.00856181C17.9674 0.000531444 17.986 -0.00193305 18.0039 0.00152018C20.0048 0.357447 21.9183 0.978786 23.7029 1.82226C23.7187 1.82912 23.7316 1.84065 23.7393 1.85652ZM11.8729 12.0872C11.895 10.4965 10.7694 9.18024 9.35643 9.18024C7.95503 9.18024 6.84028 10.4849 6.84028 12.0872C6.84028 13.689 7.97708 14.9937 9.35643 14.9937C10.7582 14.9937 11.8729 13.689 11.8729 12.0872ZM21.1766 12.0872C21.1987 10.4965 20.0731 9.18024 18.6605 9.18024C17.2587 9.18024 16.144 10.4849 16.144 12.0872C16.144 13.689 17.2808 14.9937 18.6605 14.9937C20.0731 14.9937 21.1766 13.689 21.1766 12.0872Z" fill="#5865F2"/>
</svg>
