<svg width="22" height="22" viewBox="0 0 22 22" fill="none" xmlns="http://www.w3.org/2000/svg">
<path fill-rule="evenodd" clip-rule="evenodd" d="M11 0C4.92438 0 0 5.04872 0 11.2777C0 16.2585 3.15233 20.4853 7.52219 21.9808C8.07069 22.0858 8.27562 21.7336 8.27562 21.437C8.27562 21.1651 8.26356 20.2814 8.26356 19.3359C5.20164 20.0157 4.55671 18.0073 4.55671 18.0073C4.05644 16.7034 3.33315 16.3574 3.33315 16.3574C2.3326 15.6591 3.40548 15.6714 3.40548 15.6714C4.50849 15.7518 5.09315 16.8332 5.09315 16.8332C6.07562 18.5573 7.66685 18.0567 8.2937 17.7725C8.39014 17.0433 8.67945 16.5489 8.99288 16.2647C6.55178 15.9804 3.97808 15.0102 3.97808 10.6907C3.97808 9.46094 4.40603 8.45367 5.11123 7.66269C4.99671 7.37842 4.62301 6.22902 5.21973 4.67795C5.21973 4.67795 6.14192 4.37515 8.24548 5.83353C9.12548 5.58634 10.0658 5.45657 11 5.45657C11.9342 5.46275 12.8745 5.58634 13.7545 5.83353C15.8521 4.37515 16.7742 4.67795 16.7742 4.67795C17.371 6.22902 16.9973 7.37842 16.8827 7.66269C17.5879 8.45367 18.0159 9.46094 18.0159 10.6907C18.0159 15.0226 15.4422 15.9742 12.9951 16.2523C13.3868 16.6045 13.7425 17.2905 13.7425 18.341C13.7425 19.8488 13.7304 21.0662 13.7304 21.437C13.7304 21.7398 13.9293 22.0858 14.4838 21.9808C18.8537 20.4853 22 16.2647 22 11.2777C22 5.04872 17.0756 0 11 0Z" fill="#181616"/>
<path d="M4.16493 16.1905C4.14082 16.2461 4.05644 16.2647 3.97808 16.2276C3.89973 16.1905 3.85151 16.1164 3.88164 16.0607C3.90575 16.0051 3.99014 15.9866 4.06849 16.0237C4.14685 16.0607 4.19507 16.1349 4.16493 16.1905Z" fill="#181616"/>
<path d="M4.61096 16.7034C4.55671 16.7529 4.45425 16.7281 4.38795 16.654C4.31562 16.5736 4.30356 16.4686 4.35781 16.4192C4.41206 16.3697 4.50849 16.3944 4.58082 16.4686C4.65315 16.5489 4.66521 16.654 4.61096 16.7034Z" fill="#181616"/>
<path d="M5.04493 17.3523C4.97862 17.4017 4.87013 17.3585 4.7978 17.2534C4.7315 17.1545 4.7315 17.0309 4.7978 16.9815C4.8641 16.9321 4.9726 16.9753 5.04493 17.0742C5.11725 17.1792 5.11725 17.3028 5.04493 17.3523Z" fill="#181616"/>
<path d="M5.64164 17.9764C5.58137 18.0444 5.45479 18.0258 5.35836 17.9332C5.26192 17.8405 5.23781 17.7107 5.29808 17.6427C5.35836 17.5747 5.49096 17.5933 5.58137 17.686C5.67781 17.7848 5.70192 17.9146 5.64164 17.9764Z" fill="#181616"/>
<path d="M6.46137 18.341C6.43726 18.4275 6.31068 18.4708 6.18411 18.4337C6.05753 18.3966 5.97918 18.2916 6.00329 18.2051C6.0274 18.1185 6.15397 18.0753 6.28055 18.1124C6.40109 18.1494 6.48548 18.2545 6.46137 18.341Z" fill="#181616"/>
<path d="M7.35945 18.409C7.36548 18.5017 7.25698 18.582 7.12438 18.582C6.99178 18.5882 6.88931 18.5079 6.88329 18.4152C6.88329 18.3225 6.98575 18.2421 7.11835 18.2421C7.25096 18.2421 7.35945 18.3163 7.35945 18.409Z" fill="#181616"/>
<path d="M8.19726 18.2669C8.21534 18.3595 8.12493 18.4522 7.99233 18.477C7.86575 18.5017 7.7452 18.4461 7.73315 18.3534C7.71507 18.2607 7.81151 18.168 7.93808 18.1433C8.06466 18.1185 8.17918 18.1742 8.19726 18.2669Z" fill="#181616"/>
</svg>
