<svg width="22" height="22" viewBox="0 0 22 22" fill="none" xmlns="http://www.w3.org/2000/svg">
<path d="M22 11.2437C22 10.3419 21.9251 9.68377 21.763 9.00129H11.2245V13.0718H17.4104C17.2857 14.0834 16.6122 15.6068 15.1156 16.6305L15.0946 16.7668L18.4267 19.2892L18.6576 19.3117C20.7777 17.3983 22 14.583 22 11.2437Z" fill="#4285F4"/>
<path d="M11.2245 21.9686C14.2551 21.9686 16.7992 20.9935 18.6576 19.3117L15.1156 16.6305C14.1678 17.2764 12.8957 17.7273 11.2245 17.7273C8.25626 17.7273 5.737 15.814 4.83895 13.1693L4.70732 13.1803L1.24256 15.8005L1.19725 15.9236C3.04304 19.5067 6.83443 21.9686 11.2245 21.9686Z" fill="#34A853"/>
<path d="M4.83895 13.1694C4.602 12.4869 4.46486 11.7556 4.46486 11C4.46486 10.2443 4.602 9.51313 4.82649 8.83065L4.82021 8.6853L1.31203 6.02293L1.19725 6.07629C0.436513 7.56316 0 9.23285 0 11C0 12.7672 0.436513 14.4368 1.19725 15.9236L4.83895 13.1694Z" fill="#FBBC05"/>
<path d="M11.2245 4.27258C13.3322 4.27258 14.7539 5.16225 15.5646 5.90572L18.7324 2.88325C16.7869 1.1161 14.2551 0.0314255 11.2245 0.0314255C6.83443 0.0314255 3.04304 2.49324 1.19725 6.07628L4.82649 8.83065C5.737 6.18601 8.25625 4.27258 11.2245 4.27258Z" fill="#EB4335"/>
</svg>
