<svg width="100" height="100" viewBox="0 0 100 100" fill="none" xmlns="http://www.w3.org/2000/svg">
<path fill-rule="evenodd" clip-rule="evenodd" d="M21.3818 8.99467C17.8052 11.4956 14.5709 14.4524 11.7633 17.781C23.2366 16.7158 37.8129 18.4551 54.736 26.9167C72.8075 35.9522 87.3595 36.2577 97.487 34.3042C96.568 31.522 95.411 28.848 94.0407 26.306C82.4475 27.5287 67.585 25.9102 50.264 17.2499C39.2649 11.7504 29.5694 9.48502 21.3818 8.99467ZM87.2685 16.6666C78.1132 6.43749 64.8085 0 50 0C45.6512 0 41.4317 0.555268 37.4092 1.5987C42.8572 3.08521 48.6447 5.25997 54.736 8.30567C67.4175 14.6463 78.366 16.6879 87.2685 16.6666ZM99.6523 44.0702C87.4172 46.4862 70.522 45.99 50.264 35.861C31.3249 26.3915 16.2511 26.5107 6.08476 28.77C5.56001 28.8865 5.04761 29.009 4.54758 29.1365C3.21655 32.0312 2.15409 35.0752 1.39176 38.2362C2.20597 38.0187 3.04733 37.812 3.9154 37.619C16.2489 34.8782 33.6752 34.9972 54.736 45.5277C73.6752 54.9972 88.749 54.878 98.9155 52.6187C99.2637 52.5415 99.607 52.4615 99.9445 52.379C99.9815 51.5907 100 50.7975 100 50C100 47.9937 99.882 46.015 99.6523 44.0702ZM98.312 62.9307C86.1957 65.049 69.7925 64.236 50.264 54.472C31.3249 45.0025 16.2511 45.1217 6.08476 47.381C3.82813 47.8822 1.7981 48.493 0.00732501 49.1377C0.0024425 49.4245 0 49.712 0 50C0 77.6142 22.3857 100 50 100C73.1427 100 92.6132 84.2772 98.312 62.9307Z" fill="#1BBED0"/>
</svg>
