<svg width="125" height="151" viewBox="0 0 125 151" fill="none" xmlns="http://www.w3.org/2000/svg">
<path d="M50.0994 14.8108C49.7792 14.82 49.4646 14.8904 49.176 15.0175C48.8874 15.1445 48.631 15.3254 48.4235 15.5485C48.216 15.7716 48.0619 16.032 47.9711 16.3128C47.8803 16.5937 47.8548 16.8888 47.8963 17.1792C48.0258 18.4826 48.1554 19.9044 48.1554 21.2054C48.166 21.4253 48.2255 21.6409 48.3302 21.8391C48.435 22.0372 48.5829 22.2138 48.7649 22.3579C48.9468 22.5021 49.159 22.6108 49.3884 22.6775C49.6179 22.7442 49.8598 22.7674 50.0994 22.7457C53.9857 22.5088 55.5402 21.2054 55.4141 18.4826C55.1542 15.6397 53.3397 14.8108 50.0994 14.8108Z" fill="#1BBED0"/>
<path d="M50.6184 26.0661C50.1493 26.1244 49.7194 26.337 49.4093 26.6641C49.0992 26.9912 48.93 27.4103 48.9335 27.8432C49.0631 29.501 49.1926 30.9221 49.3222 32.4639C49.349 32.7155 49.4376 32.9584 49.5812 33.1744C51.4044 30.9159 53.5877 28.9201 56.0584 27.2534C55.1542 26.3029 53.3397 25.8292 50.6184 26.0661Z" fill="#1BBED0"/>
<path d="M40.1194 8.05374C33.2501 10.4221 27.8067 14.4484 25.3437 19.902C24.0197 24.4134 24.3383 29.1962 26.2513 33.5273C28.0148 37.6168 31.0843 41.1262 35.0603 43.5985C38.2361 42.8683 41.5083 42.5494 44.7812 42.6512C45.2256 41.0772 45.7885 39.5333 46.4661 38.0304L46.8547 37.3199L42.0591 37.912C41.9455 37.9387 41.8267 37.9399 41.7125 37.9157C41.5983 37.8914 41.4923 37.8423 41.4033 37.7726C41.3143 37.7029 41.245 37.6145 41.2013 37.5151C41.1576 37.4157 41.1408 37.3081 41.1523 37.2015C41.1523 36.8455 41.4113 36.3718 41.8 36.3718C42.6338 36.1844 43.3719 35.7408 43.8907 35.1154C44.4095 34.4899 44.6775 33.7206 44.6499 32.936C44.5204 30.6845 43.4832 19.666 43.2241 17.296C43.1354 16.4866 42.7346 15.7325 42.0936 15.1685C41.4525 14.6044 40.6128 14.2672 39.7247 14.2171C39.2065 14.2171 38.9474 13.8618 38.817 13.3881C38.8046 13.1849 38.8785 12.9852 39.0233 12.8306C39.1682 12.676 39.3727 12.5785 39.5943 12.5584L46.4635 12.44H47.2408L47.1112 10.1885C47.0548 9.91473 47.0613 9.63327 47.1303 9.36197C47.1994 9.09068 47.3295 8.83551 47.5124 8.61271C47.6953 8.38991 47.9269 8.20437 48.1925 8.0679C48.4582 7.93143 48.752 7.84703 49.0552 7.82006C50.2211 7.82006 51.1279 8.88663 51.2583 10.1885L51.3879 12.44C55.9245 12.6768 58.6466 14.9284 58.9014 18.1241C58.9778 19.0414 58.7907 19.961 58.3587 20.7919C57.9267 21.6227 57.2647 22.3359 56.4383 22.8609C56.2886 22.9637 56.1718 23.1013 56.1002 23.2595C56.0286 23.4176 56.0048 23.5905 56.0312 23.7599C56.0577 23.9294 56.1335 24.0892 56.2507 24.2227C56.3679 24.3562 56.5222 24.4585 56.6974 24.5188C57.5525 24.769 58.345 25.1714 59.0292 25.703C60.2008 25.1188 61.4124 24.6043 62.6564 24.1627C65.3059 23.3207 68.0416 22.7253 70.8219 22.3857C70.6924 21.7928 70.4333 21.2015 70.3038 20.7278C66.1713 9.59714 52.6919 3.90985 40.1194 8.05374Z" fill="#1BBED0"/>
<path d="M80.947 58.0567C85.0924 58.0567 87.1651 56.7533 87.4242 54.1465C87.6833 51.4213 85.8697 49.8834 81.3331 49.6466C80.835 49.6316 80.3508 49.7977 79.9865 50.1084C79.6221 50.4192 79.4073 50.8492 79.389 51.3044C79.2586 52.9623 79.13 54.6202 79.13 56.162C79.0862 56.3999 79.101 56.6436 79.173 56.8756C79.2451 57.1077 79.3727 57.3221 79.5467 57.5035C79.7206 57.6849 79.9365 57.8286 80.1787 57.9243C80.4209 58.0199 80.6833 58.0652 80.947 58.0567Z" fill="#1BBED0"/>
<path d="M81.3366 46.0901C85.4819 46.3269 87.2955 45.2604 87.4277 42.4167C87.6868 39.4546 86.0027 38.2697 82.505 37.9168C82.1722 37.8885 81.8365 37.9216 81.5179 38.0142C81.1993 38.1068 80.9043 38.257 80.6504 38.4558C80.3965 38.6546 80.1888 38.898 80.0398 39.1716C79.8908 39.4452 79.8035 39.7433 79.7829 40.0483C79.6534 41.4694 79.5238 42.8904 79.5238 44.1946C79.5031 44.4285 79.534 44.6639 79.6145 44.8867C79.6949 45.1096 79.8235 45.3155 79.9925 45.4921C80.1614 45.6688 80.3674 45.8128 80.5983 45.9155C80.8292 46.0182 81.0802 46.0776 81.3366 46.0901Z" fill="#1BBED0"/>
<path d="M100.259 42.5351C95.8549 31.5166 82.3729 25.8293 69.8012 29.9763C66.4137 31.1038 63.3303 32.8823 60.7588 35.192C58.1874 37.5016 56.1878 40.2886 54.8951 43.3648C54.9145 43.5317 54.8686 43.6996 54.7655 43.8385C56.6385 44.2125 58.4625 44.7683 60.2063 45.4964C66.0935 47.9549 70.7951 52.2951 73.4266 57.7007C73.8296 57.2249 74.0564 56.6443 74.0744 56.0428C74.2039 53.6744 74.982 42.1806 75.1107 39.6922C75.159 38.8413 74.8718 38.0027 74.3013 37.3288C73.7308 36.655 72.9149 36.1904 72.0017 36.0197C71.7688 35.9741 71.5619 35.8531 71.419 35.679C71.2762 35.5049 71.207 35.2894 71.2244 35.0723C71.2285 34.9587 71.2605 34.8474 71.3179 34.7467C71.3754 34.6459 71.4568 34.5581 71.5563 34.49C71.6557 34.4218 71.7707 34.3749 71.8926 34.3527C72.0145 34.3305 72.1403 34.3336 72.2608 34.3618L80.2924 35.3091L80.422 33.0584C80.5515 31.755 81.5887 30.69 82.7537 30.9268C83.9196 31.046 84.8264 32.3479 84.6978 33.6521L84.5682 35.9036C89.2318 36.7325 91.6965 39.4562 91.4374 42.7719C91.3843 43.7484 91.0432 44.6935 90.4502 45.5071C89.8573 46.3207 89.0346 46.9725 88.0693 47.3934C87.893 47.4792 87.7456 47.6072 87.6427 47.7638C87.5399 47.9203 87.4856 48.0994 87.4856 48.282C87.4856 48.4646 87.5399 48.6437 87.6427 48.8002C87.7456 48.9567 87.893 49.0847 88.0693 49.1705C90.7906 50.4739 91.8278 52.3694 91.6965 54.6178C91.4375 57.5807 88.8466 60.6612 82.7537 61.0164L82.6233 63.504C82.4938 64.6882 81.587 65.7556 80.4202 65.7556C80.1228 65.7436 79.8316 65.6732 79.5666 65.5491C79.3016 65.425 79.0689 65.2502 78.8845 65.0366C78.7 64.8229 78.568 64.5754 78.4976 64.311C78.4272 64.0465 78.4199 63.7713 78.4762 63.504L78.6058 61.0164H74.7195C75.5162 63.3927 75.8666 65.8752 75.7558 68.3584C82.2602 66.9918 88.8354 65.9242 95.4567 65.1595C101.297 58.7673 103.37 50.2363 100.259 42.5351Z" fill="#1BBED0"/>
<path d="M50.0994 60.6636C48.1554 58.412 46.0818 58.532 43.2302 60.3075C42.959 60.4834 42.7316 60.7098 42.5629 60.9717C42.3941 61.2336 42.288 61.5252 42.2513 61.8273C42.2146 62.1294 42.2482 62.4352 42.3499 62.7246C42.4516 63.014 42.6192 63.2804 42.8415 63.5064C43.7492 64.573 44.7855 65.758 45.6915 66.8222C46.0111 67.186 46.4701 67.4251 46.9754 67.4911C47.4807 67.557 47.9945 67.4449 48.4127 67.1775C51.5252 64.8099 52.0443 62.9143 50.0994 60.6636Z" fill="#1BBED0"/>
<path d="M58.6544 69.316C56.8408 67.1845 54.3769 67.0653 50.8818 69.6721C50.4999 69.9784 50.2604 70.4065 50.2123 70.8689C50.1641 71.3312 50.3109 71.793 50.6227 72.1597C51.0113 72.6334 51.4 72.9894 51.7886 73.4631C54.3795 72.871 56.9703 72.1597 59.695 71.5684C59.5754 70.7459 59.216 69.9679 58.6544 69.316Z" fill="#1BBED0"/>
<path d="M70.7045 62.9143C66.3001 51.8957 52.8215 46.2084 40.249 50.3555C27.4173 54.6186 20.6776 67.535 25.0846 79.028C25.3437 79.3832 25.4733 79.8577 25.7324 80.2122C31.1732 78.7911 38.564 76.7764 46.6 74.7649C46.0818 74.2912 40.641 67.8966 38.9535 65.9971C38.3371 65.3573 37.5019 64.9271 36.5839 64.7766C35.6659 64.626 34.7191 64.7641 33.8979 65.1682C33.6872 65.2787 33.4398 65.3156 33.2015 65.2721C32.9633 65.2285 32.7504 65.1075 32.6025 64.9313C32.518 64.8491 32.4538 64.7514 32.4142 64.6446C32.3745 64.5378 32.3604 64.4245 32.3726 64.3123C32.3849 64.2001 32.4233 64.0916 32.4853 63.9941C32.5473 63.8966 32.6314 63.8124 32.732 63.7471L39.3421 59.484L37.7876 57.707C36.88 56.6404 36.88 55.2186 37.9172 54.628C38.4912 54.3598 39.1537 54.2962 39.7762 54.4495C40.3986 54.6029 40.9365 54.9622 41.2853 55.4578L42.8398 57.2349C46.9852 54.9841 50.7463 55.4578 52.9494 58.1822C53.6044 58.9403 54.0324 59.8411 54.1916 60.7961C54.3507 61.7511 54.2354 62.7275 53.857 63.6295C53.788 63.7999 53.7716 63.9843 53.8094 64.1626C53.8473 64.3409 53.938 64.5063 54.0717 64.6407C54.2053 64.7751 54.3768 64.8734 54.5674 64.9248C54.758 64.9762 54.9604 64.9787 55.1524 64.9321C56.3404 64.5726 57.6195 64.55 58.8218 64.8673C60.024 65.1846 61.0932 65.827 61.8887 66.71C62.8366 67.8269 63.3396 69.2059 63.3145 70.6194C66.1645 69.9089 69.0144 69.316 71.8687 68.7247C71.8607 66.7401 71.4665 64.7726 70.7045 62.9143Z" fill="#1BBED0"/>
<path d="M124.238 121.327L120.87 108.649C122.052 108.248 123.085 107.55 123.851 106.635C124.226 106.139 124.489 105.579 124.622 104.989C124.756 104.398 124.758 103.789 124.628 103.198L119.832 85.189C119.443 83.6488 117.501 82.3469 113.999 82.7014L110.758 70.5003C108.945 63.7472 108.167 63.6319 100.649 64.3424H100.259C102.268 62.2469 103.927 59.8912 105.182 57.3517C108.044 51.4246 108.277 44.7129 105.831 38.632C104.633 35.6283 102.789 32.8747 100.407 30.5343C98.0246 28.1939 95.1528 26.3143 91.9616 25.0067C89.688 24.0887 87.2909 23.4515 84.8333 23.1119C81.7355 22.4335 78.5565 22.1152 75.3715 22.1646C75.2218 20.0601 74.7416 17.9862 73.9457 16.0068C72.7817 13.116 71.0032 10.4645 68.7127 8.20525C66.4221 5.94597 63.665 4.1236 60.6001 2.84327C58.4162 1.92697 56.1048 1.28944 53.7309 0.948553C46.7765 -0.580547 39.4879 -0.251729 32.732 1.89591C25.8047 4.27088 20.1734 9.03568 17.0486 15.166C15.5686 18.0859 14.7483 21.2489 14.6368 24.4654C14.5254 27.682 15.1251 30.886 16.4 33.8857C18.4727 38.6225 22.752 42.7719 28.4545 45.6156C22.4707 48.3578 17.6753 52.8669 14.8455 58.412C13.8428 60.4083 13.1454 62.5213 12.7728 64.6914C2.01386 68.1319 -0.837816 73.816 0.198529 78.0791L16.5305 140.283C17.0094 141.892 17.8428 143.394 18.9794 144.698C20.1161 146.002 21.5321 147.08 23.1406 147.866C26.177 149.32 29.564 150.053 32.9911 149.999C36.7574 149.971 40.4881 149.329 44.0083 148.104C60.8575 142.772 96.8895 134.834 114.128 132.701C119.701 131.991 122.419 131.043 123.72 129.266C125.664 127.251 125.016 124.407 124.238 121.327ZM122.683 103.673C122.761 104.023 122.755 104.384 122.665 104.731C122.576 105.079 122.405 105.405 122.165 105.687L121.776 106.042C120.8 106.837 119.577 107.334 118.277 107.463C117.888 107.463 117.5 107.581 117.11 107.581C111.224 108.493 105.419 109.8 99.742 111.492C98.4466 111.965 98.1875 111.847 98.0571 111.847C97.6503 111.475 93.3935 94.8607 93.3935 94.7857C95.0422 93.2786 109.751 90.6497 111.929 90.2858L113.873 89.9297C114.381 89.8027 114.901 89.7234 115.427 89.6929C116.14 89.5669 116.835 89.3683 117.5 89.1008C117.98 88.8937 118.418 88.6131 118.795 88.2711L122.683 103.673ZM18.8631 15.9949C20.2455 13.1504 22.2448 10.5919 24.7399 8.47394C27.2351 6.35602 30.1742 4.72277 33.3797 3.67299C35.9273 2.81517 38.5842 2.25805 41.2861 2.01512C41.027 2.13354 40.8975 2.13354 40.6384 2.25196C33.7113 4.62722 28.0801 9.39193 24.9551 15.522C23.4749 18.4421 22.6545 21.6052 22.5431 24.8219C22.4316 28.0386 23.0314 31.2428 24.3065 34.2426C25.9988 38.2366 28.8707 41.7229 32.6024 44.313C32.0271 44.4764 31.4642 44.6744 30.9175 44.9059C24.9585 42.1806 20.4185 38.0375 18.3449 33.4129C17.1437 30.6273 16.5704 27.6486 16.6595 24.6556C16.7485 21.6625 17.498 18.7167 18.8631 15.9949ZM97.2798 64.573C96.7616 64.573 96.1131 64.6914 95.5949 64.6914C89.762 65.4019 83.0223 66.4693 75.8931 67.8903C75.9399 65.4086 75.5908 62.934 74.8568 60.5443C74.7272 60.0707 74.4673 59.4786 74.3386 59.0049C74.0668 58.5123 73.8498 57.9961 73.6909 57.4639C71.0591 52.0581 66.3568 47.718 60.4689 45.2603C58.7178 44.5492 56.8957 43.994 55.0281 43.6025C55.0087 43.4355 55.0546 43.2677 55.1576 43.1288C55.5441 41.5786 56.1092 40.0702 56.8434 38.6288C58.2984 35.6589 60.3901 32.9857 62.9947 30.7675C65.5993 28.5492 68.6641 26.8309 72.0077 25.714C74.8309 24.7746 77.8121 24.2937 80.8166 24.293C85.8879 24.2444 90.8517 25.6299 95.0283 28.26C99.2048 30.8901 102.39 34.636 104.147 38.9849C105.813 43.4024 106.051 48.1651 104.833 52.703C103.615 57.241 100.992 61.362 97.2789 64.573H97.2798ZM72.1346 68.8361C69.2847 69.4282 66.4348 70.0203 63.5805 70.7308C62.2851 70.9676 60.9896 71.3237 59.8211 71.5605C57.0999 72.1526 54.5073 72.8639 51.9156 73.4552C50.2306 73.9289 48.5474 74.2849 46.8599 74.7586C38.8283 76.7733 31.4365 78.7849 25.9923 80.2059C25.7332 79.8507 25.6036 79.3762 25.3446 79.0217L24.5673 77.6007C23.3339 74.6988 22.7445 71.6015 22.8335 68.4893C22.9224 65.377 23.688 62.3121 25.0855 59.473C26.5413 56.5043 28.6332 53.8324 31.2376 51.6152C33.842 49.3979 36.9061 47.6803 40.2489 46.5637C43.0738 45.6238 46.0568 45.1429 49.063 45.1427C54.1342 45.0941 59.0979 46.4797 63.2743 49.1098C67.4507 51.7399 70.6356 55.4858 72.3929 59.8346C73.475 62.609 74.0015 65.5389 73.9474 68.484C73.3005 68.6055 72.652 68.72 72.1338 68.8424L72.1346 68.8361ZM71.2227 24.289C67.6214 25.4783 64.3193 27.3187 61.5134 29.7004C58.7075 32.0821 56.4554 34.9562 54.8916 38.1512C54.0701 39.8717 53.4195 41.6562 52.9476 43.4832C50.9516 43.0249 48.9111 42.747 46.8556 42.6535C47.2583 41.2765 47.778 39.9303 48.4101 38.6273C49.8654 35.6573 51.9573 32.9842 54.562 30.766C57.1668 28.5477 60.2316 26.8294 63.5753 25.7124C66.4063 24.7466 69.3715 24.1484 72.3842 23.9354L71.2227 24.289ZM71.0931 22.3943C68.3128 22.734 65.5771 23.3294 62.9276 24.1714C61.6834 24.6127 60.4718 25.1272 59.3004 25.7116C58.2079 26.2177 57.1674 26.8124 56.1913 27.4887C53.6911 29.1236 51.5027 31.1241 49.7142 33.4097C48.7277 34.6825 47.861 36.0294 47.1233 37.436C46.9932 37.6728 46.8634 37.9096 46.7338 38.1465C45.9992 39.6294 45.4345 41.1779 45.0489 42.7672C41.7787 42.7243 38.5148 43.0424 35.328 43.7146C31.2555 41.339 28.158 37.7976 26.5191 33.6434C24.6703 29.2991 24.353 24.5353 25.6114 20.018C25.9503 18.7531 26.428 17.5227 27.0373 16.3455C28.4194 13.5026 30.4176 10.9453 32.9112 8.82819C35.4047 6.71103 38.3419 5.07791 41.5452 4.02746C47.4414 1.97841 53.9858 2.14991 59.7439 4.50435C65.502 6.85879 70.0041 11.2041 72.2633 16.5878C73.0033 18.4127 73.44 20.3287 73.5588 22.2719C72.7362 22.1905 71.9047 22.2316 71.0966 22.3935L71.0931 22.3943ZM40.768 44.5498L39.6012 44.9051C35.9998 46.094 32.6975 47.9343 29.8916 50.316C27.0856 52.6978 24.8336 55.5721 23.2701 58.7673C21.7258 61.8177 20.8722 65.1221 20.7608 68.4818C20.6493 71.8415 21.2823 75.1872 22.6216 78.3175C23.0006 79.1688 23.4331 79.9994 23.917 80.8051C22.3625 81.1604 21.067 81.5156 19.8994 81.8717C19.6403 81.9901 19.3813 81.9901 19.1222 82.1085C17.912 80.6938 16.9098 79.1404 16.141 77.4878C14.9078 74.5858 14.3185 71.4885 14.4075 68.3764C14.4964 65.2642 15.2618 62.1993 16.6591 59.3601C18.1142 56.3901 20.206 53.7169 22.8108 51.4987C25.4156 49.2804 28.4805 47.5621 31.8243 46.4453C34.6858 45.4103 37.7002 44.7714 40.768 44.5498ZM12.6416 66.7061C12.512 68.2441 12.512 69.7889 12.6416 71.3268C10.5421 72.1729 8.68083 73.4447 7.19876 75.0459C5.71669 76.647 4.65271 78.5355 4.08741 80.5683C3.17974 79.737 -0.578729 70.6155 12.6416 66.7061ZM122.553 128.198C121.646 129.502 119.053 130.33 114.262 130.923C97.0233 133.055 60.7323 141.113 43.7535 146.445C36.24 148.813 29.3664 148.813 24.3108 146.326C21.3305 144.786 19.256 142.536 18.6109 139.931L3.4397 82.4638C3.69878 83.2935 6.54873 83.8848 7.19817 84.1217C8.97229 84.552 10.8039 84.7516 12.639 84.7145C15.2411 84.6974 17.8232 84.2975 20.2863 83.5303C21.8409 83.1751 23.7857 82.583 25.8593 81.9901C42.8389 77.4902 78.0936 68.0095 98.5761 66.2316C100.649 65.9948 104.794 64.9282 106.742 66.1132C107.519 66.5869 108.037 67.8903 108.814 70.85L113.351 88.1479C106.61 89.3321 99.8707 90.2795 93.5196 92.6479C91.3165 93.4776 91.0574 93.9513 91.5756 96.2004L95.4619 110.892C95.5165 111.383 95.683 111.858 95.9508 112.287C96.2185 112.715 96.5815 113.088 97.0164 113.38C97.3892 113.515 97.783 113.595 98.1832 113.617C99.8681 113.617 101.551 112.788 103.238 112.313C105.052 111.84 106.865 111.366 108.679 111.011C111.919 110.3 115.289 109.59 118.659 109.116H119.047L122.415 121.676C123.201 124.999 123.46 127.014 122.553 128.198Z" fill="#191919"/>
<path d="M110.758 99.5257C110.61 98.9438 110.324 98.3985 109.922 97.9278C109.519 97.4571 109.009 97.0724 108.427 96.8005C107.187 96.1996 105.75 96.0365 104.387 96.3423C103.025 96.648 101.833 97.4012 101.039 98.4583C100.659 98.9282 100.403 99.4718 100.291 100.047C100.178 100.622 100.212 101.213 100.391 101.774C101.039 104.262 104.15 105.563 106.742 104.974C109.203 104.383 111.406 102.013 110.758 99.5257Z" fill="#191919"/>
<path d="M104.148 84.4784C104.226 84.6927 104.389 84.8725 104.605 84.9822C104.821 85.0918 105.074 85.1234 105.314 85.0705C105.434 85.0412 105.547 84.99 105.645 84.92C105.744 84.85 105.826 84.7627 105.886 84.6631C105.947 84.5636 105.985 84.4539 105.998 84.3407C106.011 84.2274 105.999 84.1129 105.963 84.0039C105.381 80.8487 104.335 77.7799 102.854 74.8809C102.206 73.8143 100.522 74.7625 101.169 75.8283C102.606 78.5676 103.61 81.4803 104.148 84.4784Z" fill="#191919"/>
<path d="M94.0386 72.1582C89.7611 72.395 85.7427 73.5792 81.5956 74.5266C80.4289 74.7634 80.947 76.5405 82.1138 76.1845C86.0001 75.2371 90.0202 74.0529 94.0386 73.8161C94.1753 73.8179 94.3109 73.7946 94.4376 73.7476C94.5642 73.7007 94.6792 73.631 94.7759 73.5426C94.8725 73.4543 94.9488 73.3491 95.0001 73.2334C95.0515 73.1176 95.077 72.9936 95.075 72.8687C94.9995 72.6693 94.8604 72.4951 94.6758 72.3685C94.4911 72.2419 94.2692 72.1686 94.0386 72.1582Z" fill="#191919"/>
<path d="M59.8229 82.227C63.9682 81.1604 67.9884 80.0954 72.1363 79.0281C73.3031 78.6728 72.7841 77.0142 71.6182 77.3702C67.5997 78.4368 63.4526 79.5018 59.3047 80.5691C58.1353 80.8052 58.6544 82.4638 59.8229 82.227Z" fill="#191919"/>
<path d="M36.4904 88.6247C40.3767 87.4405 44.2673 86.4931 48.1554 85.4258C49.3221 85.0705 48.8039 83.4119 47.6372 83.7679C43.7509 84.8345 39.8603 85.7826 35.9723 86.9668C35.8465 86.9923 35.7277 87.041 35.6232 87.11C35.5188 87.179 35.4309 87.2669 35.365 87.3681C35.299 87.4693 35.2564 87.5817 35.2398 87.6985C35.2231 87.8154 35.2328 87.934 35.2682 88.0473C35.3036 88.1606 35.364 88.266 35.4456 88.3572C35.5273 88.4483 35.6284 88.5232 35.7429 88.5773C35.8574 88.6314 35.9828 88.6635 36.1113 88.6716C36.2399 88.6798 36.3689 88.6638 36.4904 88.6247Z" fill="#191919"/>
<path d="M24.3065 89.8098C22.2231 90.2685 20.0969 90.5463 17.9563 90.6395C15.6533 90.7772 13.3406 90.6177 11.0862 90.1658C9.92034 89.929 9.4013 91.5869 10.5681 91.8237C13.4616 92.3972 16.435 92.557 19.3822 92.2974C21.2146 92.1366 23.0326 91.8594 24.823 91.4677C26.1219 91.35 25.6028 89.573 24.3065 89.8098Z" fill="#191919"/>
<path d="M113.221 115.047C113.602 116.373 113.905 117.717 114.128 119.073C114.296 121.352 113.579 121.96 113.221 122.272C112.39 122.747 111.465 123.069 110.499 123.219C109.138 123.52 107.751 123.718 106.354 123.811C106.079 123.811 105.815 123.911 105.621 124.089C105.427 124.266 105.318 124.507 105.318 124.759C105.318 125.01 105.427 125.251 105.621 125.428C105.815 125.606 106.079 125.706 106.354 125.706C108.817 125.469 111.409 125.232 113.613 124.285C115.557 123.338 116.203 121.68 116.203 119.785C116.122 118.013 115.773 116.26 115.167 114.574C114.905 113.506 112.961 113.981 113.221 115.047Z" fill="#191919"/>
<path d="M95.9827 125.118C92.1958 125.497 88.4323 126.05 84.7064 126.776C84.4717 126.847 84.2748 126.996 84.1547 127.193C84.0346 127.391 84 127.622 84.0578 127.842C84.0899 127.952 84.146 128.055 84.2226 128.145C84.2992 128.235 84.3948 128.309 84.5037 128.365C84.6126 128.42 84.7325 128.454 84.8564 128.466C84.9802 128.478 85.1054 128.467 85.2246 128.434C88.7785 127.748 92.3695 127.234 95.9827 126.894C96.1193 126.896 96.255 126.873 96.3816 126.826C96.5082 126.779 96.6232 126.709 96.7199 126.621C96.8165 126.532 96.8928 126.427 96.9441 126.311C96.9955 126.196 97.021 126.072 97.019 125.947C96.9945 125.714 96.8736 125.498 96.6809 125.344C96.4883 125.19 96.2385 125.109 95.9827 125.118Z" fill="#191919"/>
<path d="M74.5968 129.028C71.2287 129.857 67.7267 130.805 64.3569 131.753C63.191 132.108 63.7092 133.767 64.8751 133.411C68.2432 132.464 71.6113 131.516 75.1141 130.686C76.2818 130.45 75.7627 128.673 74.5968 129.028Z" fill="#191919"/>
<path d="M53.9883 134.715C50.0303 135.897 46.0065 136.886 41.9338 137.677C41.6994 137.748 41.5027 137.897 41.3828 138.095C41.2628 138.292 41.2283 138.524 41.2861 138.743C41.3182 138.853 41.3742 138.956 41.4507 139.046C41.5273 139.136 41.6229 139.211 41.7318 139.266C41.8407 139.321 41.9607 139.356 42.0845 139.368C42.2084 139.38 42.3337 139.369 42.4529 139.336C46.5321 138.57 50.5572 137.581 54.5064 136.374C54.6388 136.354 54.7651 136.309 54.877 136.242C54.989 136.174 55.084 136.086 55.1559 135.982C55.2277 135.879 55.2748 135.763 55.294 135.641C55.3132 135.52 55.3041 135.396 55.2673 135.278C55.2305 135.161 55.1668 135.051 55.0804 134.957C54.994 134.864 54.8869 134.788 54.766 134.734C54.6452 134.681 54.5134 134.652 54.3794 134.649C54.2453 134.645 54.112 134.668 53.9883 134.715Z" fill="#191919"/>
<path d="M31.4357 138.625C29.6451 138.985 27.7871 138.959 26.0096 138.548C24.2321 138.137 22.5841 137.352 21.1966 136.256C21.0075 136.083 20.7511 135.986 20.4837 135.986C20.2163 135.986 19.9598 136.083 19.7708 136.256C19.5817 136.429 19.4755 136.663 19.4755 136.908C19.4755 137.152 19.5817 137.387 19.7708 137.56C21.4012 138.877 23.3572 139.812 25.4707 140.285C27.6059 140.699 29.8125 140.699 31.9478 140.285C32.1824 140.214 32.3791 140.064 32.4992 139.867C32.6193 139.669 32.654 139.438 32.5964 139.218C32.6024 138.743 31.9539 138.506 31.4357 138.625Z" fill="#191919"/>
</svg>
